<svg xmlns="http://www.w3.org/2000/svg" shape-rendering="geometricPrecision" text-rendering="geometricPrecision" image-rendering="optimizeQuality" fill-rule="evenodd" clip-rule="evenodd" viewBox="0 0 512 264.47"><path d="M38.69 108.45c2.32-31.07 10.99-62.24 34.46-62.24h155.39V8.3c0-4.57 3.73-8.3 8.3-8.3h35.94c5.96 0 10.83 4.89 10.83 10.82v35.39h152.78c24.57 0 34.14 31.61 36.86 62.67-3.32-7.75-7.47-14.52-12.45-19.88-7.84-8.42-17.6-13.38-29.33-13.38H78.2c-11.25 0-20.62 5.09-28.13 13.73-4.51 5.19-8.3 11.69-11.38 19.1zm-9.49 27.58H14.6c-8.03 0-14.6 6.57-14.6 14.6v46.73c0 8.03 6.57 14.6 14.6 14.6h14.6c-4.56-31.89-4.72-57.43 0-75.93zm453.6 0h14.6c8.03 0 14.6 6.57 14.6 14.6v46.73c0 8.03-6.57 14.6-14.6 14.6h-14.6c4.56-31.89 4.72-57.43 0-75.93zM78.2 83.51h353.27c19.69 0 32.68 17.79 39.21 42.15 3.09 11.54 4.75 24.63 4.98 37.97.23 13.32-.97 26.87-3.57 39.39-6.29 30.31-20.89 54.78-43.61 56.19-18.74 1.17-37.59 2.15-56.51 2.94-19.62.82-39.59.87-59.1 1.93-7.08.45-24.03 1.19-26.07-7.05-6.26-25.35-9.38-38.39-18.21-45.9-8.63-7.33-17.51-6.62-25.55 1.11-8.51 8.17-10.35 21.1-14.03 42.3-1.96 11.33-22.66 10.19-31.26 9.57-19.72-1.22-40.19-1.17-60.07-2-19.04-.8-38-1.78-56.85-2.94-21.65-1.32-35.33-25.34-41.19-55.26-2.45-12.52-3.55-26.14-3.29-39.53.25-13.42 1.87-26.61 4.82-38.25 6.25-24.6 18.57-42.62 37.03-42.62zm7.9 13.17h337.48c53.6 0 51.24 145.82-3.15 149.38-37.57 2.46-67.29 3.93-104.87 4.72-5.21.11-19.45.66-20.94-4.92-21.61-80.58-62.35-66.35-73.47-2.29-1.34 7.75-20.59 7.31-26.57 7.18-37.85-.79-67.85-2.26-105.7-4.73-51.72-3.39-52.42-149.34-2.78-149.34zM245.17 23.4h20.78a4.38 4.38 0 0 1 4.37 4.37v17.64h-28.5V26.75c0-1.84 1.51-3.35 3.35-3.35zM175.9 51.72h160.35c1.28 0 2.33 1.05 2.33 2.33v6.61c0 1.28-1.05 2.33-2.33 2.33H175.9a2.34 2.34 0 0 1-2.34-2.33v-6.61a2.34 2.34 0 0 1 2.34-2.33z"/></svg>